<svg width="521" height="776" viewBox="0 0 521 776" fill="none" xmlns="http://www.w3.org/2000/svg">
<g filter="url(#filter0_d_535_2)">
<path fill-rule="evenodd" clip-rule="evenodd" d="M303.338 32.5615L303.832 3.61238L304.831 3.64197L304.337 32.591L303.338 32.5615ZM306.673 5.42445C308.28 6.88788 311.265 8.90219 315.038 10.2387C318.813 11.5755 323.407 12.245 328.219 10.9715C332.553 9.82474 335.143 8.75391 337.256 7.88042L337.256 7.88041C338.023 7.56335 338.727 7.2723 339.429 7.01305C342.045 6.04679 344.755 5.46274 350.933 5.52597L351.067 4.47403C344.823 4.41012 341.998 5.00047 339.243 6.01831C338.501 6.2921 337.775 6.59239 336.993 6.91553L336.993 6.91558L336.993 6.91559C334.89 7.78524 332.386 8.82034 328.119 9.94937C323.525 11.1652 319.103 10.5332 315.429 9.23179C311.754 7.93005 308.857 5.96949 307.327 4.57555L306.673 5.42445ZM304.673 33.4245C306.351 34.9528 309.47 37.0575 313.412 38.4539C317.356 39.8507 322.155 40.5498 327.181 39.2197C331.71 38.0212 334.417 36.9025 336.626 35.9894C337.428 35.6578 338.164 35.3533 338.899 35.0819C341.629 34.0733 344.457 33.4632 350.881 33.5255L350.877 33.7845L351.876 33.8106L352.311 4.94324L351.311 4.91712L350.896 32.4724C344.489 32.418 341.564 33.0336 338.712 34.0872C337.938 34.3731 337.179 34.6869 336.362 35.0246L336.362 35.0246C334.163 35.9339 331.543 37.0168 327.081 38.1976C322.273 39.47 317.647 38.8084 313.803 37.447C309.959 36.0853 306.929 34.0344 305.327 32.5755L304.673 33.4245Z" fill="black"/>
<path d="M303.832 3.61238L303.92 0.613695L300.884 0.523805L300.832 3.56121L303.832 3.61238ZM303.338 32.5615L300.338 32.5103L300.288 35.4725L303.249 35.5601L303.338 32.5615ZM304.831 3.64197L307.831 3.69314L307.881 0.730948L304.92 0.643285L304.831 3.64197ZM304.337 32.591L304.249 35.5897L307.285 35.6796L307.337 32.6422L304.337 32.591ZM315.038 10.2387L314.037 13.0665L315.038 10.2387ZM306.673 5.42445L304.297 3.5932L302.61 5.78176L304.653 7.64234L306.673 5.42445ZM328.219 10.9715L328.987 13.8717L328.219 10.9715ZM337.256 7.88042L336.203 5.07143L336.156 5.08892L336.11 5.10796L337.256 7.88042ZM337.256 7.88041L338.31 10.6894L338.356 10.6719L338.402 10.6529L337.256 7.88041ZM339.429 7.01305L340.469 9.82714L340.469 9.82714L339.429 7.01305ZM350.933 5.52597L350.903 8.52582L353.573 8.55315L353.909 5.9038L350.933 5.52597ZM351.067 4.47403L354.043 4.85185L354.467 1.50868L351.097 1.47418L351.067 4.47403ZM339.243 6.01831L338.203 3.20422V3.20422L339.243 6.01831ZM336.993 6.91553L338.098 9.70495L338.119 9.69662L338.139 9.68798L336.993 6.91553ZM336.993 6.91558L335.889 4.12616L335.815 4.15534L335.743 4.18838L336.993 6.91558ZM336.993 6.91559L338.139 9.68803L338.192 9.66639L338.243 9.64279L336.993 6.91559ZM328.119 9.94937L327.352 7.04921L328.119 9.94937ZM315.429 9.23179L316.431 6.40392L315.429 9.23179ZM307.327 4.57555L309.347 2.35766L306.939 0.164278L304.951 2.7443L307.327 4.57555ZM313.412 38.4539L312.411 41.2818H312.411L313.412 38.4539ZM304.673 33.4245L302.297 31.5932L300.61 33.7818L302.653 35.6423L304.673 33.4245ZM327.181 39.2197L327.949 42.1199H327.949L327.181 39.2197ZM336.626 35.9894L337.772 38.7619L337.772 38.7619L336.626 35.9894ZM338.899 35.0819L337.859 32.2679L338.899 35.0819ZM350.881 33.5255L353.88 33.5706L353.926 30.5548L350.91 30.5256L350.881 33.5255ZM350.877 33.7845L347.877 33.7394L347.832 36.706L350.798 36.7835L350.877 33.7845ZM351.876 33.8106L351.798 36.8096L354.83 36.8888L354.876 33.8558L351.876 33.8106ZM352.311 4.94324L355.311 4.98839L355.355 2.02174L352.389 1.94426L352.311 4.94324ZM351.311 4.91712L351.39 1.91815L348.357 1.83893L348.312 4.87197L351.311 4.91712ZM350.896 32.4724L350.871 35.4723L353.851 35.4976L353.896 32.5176L350.896 32.4724ZM338.712 34.0872L339.752 36.9013L339.752 36.9013L338.712 34.0872ZM336.362 35.0246L337.311 37.8706L337.411 37.8373L337.509 37.797L336.362 35.0246ZM336.362 35.0246L335.414 32.1786L335.314 32.2119L335.216 32.2522L336.362 35.0246ZM327.081 38.1976L327.849 41.0977L327.081 38.1976ZM313.803 37.447L312.802 40.2749H312.802L313.803 37.447ZM305.327 32.5755L307.347 30.3577L304.939 28.1643L302.951 30.7443L305.327 32.5755ZM300.832 3.56121L300.338 32.5103L306.337 32.6126L306.831 3.66355L300.832 3.56121ZM304.92 0.643285L303.92 0.613695L303.743 6.61107L304.743 6.64066L304.92 0.643285ZM307.337 32.6422L307.831 3.69314L301.832 3.5908L301.338 32.5399L307.337 32.6422ZM303.249 35.5601L304.249 35.5897L304.426 29.5924L303.427 29.5628L303.249 35.5601ZM316.04 7.4108C312.651 6.21051 310.01 4.40643 308.693 3.20656L304.653 7.64234C306.549 9.36932 309.879 11.5939 314.037 13.0665L316.04 7.4108ZM327.452 8.07137C323.367 9.15237 319.404 8.60229 316.04 7.4108L314.037 13.0665C318.221 14.5487 323.447 15.3377 328.987 13.8717L327.452 8.07137ZM336.11 5.10796C334.043 5.96255 331.595 6.97495 327.452 8.07137L328.987 13.8717C333.511 12.6745 336.244 11.5453 338.402 10.6529L336.11 5.10796ZM336.203 5.07142L336.203 5.07143L338.31 10.6894L338.31 10.6894L336.203 5.07142ZM338.389 4.19896C337.625 4.48154 336.867 4.79531 336.11 5.10794L338.402 10.6529C339.18 10.3314 339.83 10.0631 340.469 9.82714L338.389 4.19896ZM350.964 2.52613C344.539 2.46037 341.443 3.07073 338.389 4.19896L340.469 9.82714C342.646 9.02286 344.971 8.4651 350.903 8.52582L350.964 2.52613ZM348.091 4.0962L347.957 5.14814L353.909 5.9038L354.043 4.85185L348.091 4.0962ZM340.282 8.8324C342.599 7.97653 345.039 7.41249 351.036 7.47387L351.097 1.47418C344.607 1.40775 341.396 2.02441 338.203 3.20422L340.282 8.8324ZM338.139 9.68798C338.931 9.36087 339.604 9.08298 340.282 8.8324L338.203 3.20422C337.399 3.50122 336.619 3.82392 335.847 4.14309L338.139 9.68798ZM338.097 9.705L338.098 9.70495L335.889 4.12611L335.889 4.12616L338.097 9.705ZM338.243 9.64279L338.243 9.64277L335.743 4.18838L335.743 4.1884L338.243 9.64279ZM328.887 12.8495C333.343 11.6704 335.989 10.5772 338.139 9.68803L335.847 4.14315C333.791 4.99331 331.429 5.97032 327.352 7.04921L328.887 12.8495ZM314.428 12.0597C318.512 13.5064 323.565 14.2578 328.887 12.8495L327.352 7.04921C323.485 8.07253 319.695 7.55993 316.431 6.40392L314.428 12.0597ZM305.307 6.79344C307.127 8.45093 310.368 10.6217 314.428 12.0597L316.431 6.40392C313.14 5.23837 310.588 3.48804 309.347 2.35766L305.307 6.79344ZM309.049 7.2557L309.703 6.4068L304.951 2.7443L304.297 3.5932L309.049 7.2557ZM314.414 35.626C310.856 34.3658 308.082 32.4714 306.693 31.2066L302.653 35.6423C304.62 37.4343 308.083 39.7492 312.411 41.2818L314.414 35.626ZM326.414 36.3196C322.115 37.4571 317.947 36.8775 314.414 35.626L312.411 41.2818C316.765 42.8239 322.195 43.6425 327.949 42.1199L326.414 36.3196ZM335.48 33.2169C333.316 34.1112 330.753 35.1714 326.414 36.3196L327.949 42.1199C332.668 40.871 335.517 39.6939 337.772 38.7619L335.48 33.2169ZM337.859 32.2679C337.062 32.5625 336.271 32.8897 335.48 33.2169L337.772 38.7619C338.585 38.4259 339.267 38.1441 339.939 37.896L337.859 32.2679ZM350.91 30.5256C344.239 30.4609 341.026 31.0978 337.859 32.2679L339.939 37.896C342.232 37.0488 344.676 36.4654 350.852 36.5253L350.91 30.5256ZM353.876 33.8297L353.88 33.5706L347.881 33.4803L347.877 33.7394L353.876 33.8297ZM351.955 30.8116L350.955 30.7855L350.798 36.7835L351.798 36.8096L351.955 30.8116ZM349.311 4.89808L348.877 33.7655L354.876 33.8558L355.311 4.98839L349.311 4.89808ZM351.233 7.9161L352.233 7.94221L352.389 1.94426L351.39 1.91815L351.233 7.9161ZM353.896 32.5176L354.311 4.96228L348.312 4.87197L347.897 32.4273L353.896 32.5176ZM339.752 36.9013C342.17 36.0078 344.713 35.4201 350.871 35.4723L350.922 29.4725C344.265 29.416 340.958 30.0593 337.673 31.2731L339.752 36.9013ZM337.509 37.797C338.335 37.4553 339.041 37.164 339.752 36.9013L337.673 31.2731C336.836 31.5822 336.024 31.9184 335.216 32.2522L337.509 37.797ZM337.311 37.8707L337.311 37.8706L335.414 32.1785L335.414 32.1786L337.311 37.8707ZM327.849 41.0977C332.5 39.8668 335.262 38.7258 337.509 37.7971L335.216 32.2522C333.064 33.142 330.586 34.1668 326.314 35.2974L327.849 41.0977ZM312.802 40.2749C317.056 41.7816 322.314 42.5626 327.849 41.0977L326.314 35.2974C322.233 36.3773 318.238 35.8351 314.805 34.6192L312.802 40.2749ZM303.307 34.7934C305.198 36.5159 308.573 38.777 312.802 40.2749L314.805 34.6192C311.345 33.3936 308.66 31.553 307.347 30.3577L303.307 34.7934ZM307.049 35.2557L307.703 34.4068L302.951 30.7443L302.297 31.5932L307.049 35.2557Z" fill="#FFF8F8"/>
</g>
<g filter="url(#filter1_d_535_2)">
<path d="M328 14L330.47 21.6008H338.462L331.996 26.2984L334.466 33.8992L328 29.2016L321.534 33.8992L324.004 26.2984L317.538 21.6008H325.53L328 14Z" fill="#FAFF00"/>
</g>
<g filter="url(#filter2_d_535_2)">
<path fill-rule="evenodd" clip-rule="evenodd" d="M310.265 61C310.265 58.2386 312.504 56 315.265 56H336.048C338.809 56 341.048 58.2386 341.048 61V325.769C341.048 328.53 343.286 330.769 346.048 330.769H366.604C369.366 330.769 371.604 333.007 371.604 335.769V441.346C371.604 444.108 373.843 446.346 376.604 446.346H387.654C390.416 446.346 392.654 448.585 392.654 451.346V685.04C392.654 687.801 394.893 690.04 397.654 690.04H397.84C400.601 690.04 402.84 692.278 402.84 695.04V763C402.84 765.761 400.601 768 397.84 768L392.654 768L353.723 768L343.538 768L341.048 768H310.265H302.117H258C255.239 768 253 765.761 253 763V575.101C253 572.34 255.239 570.101 258 570.101H274.482C277.244 570.101 279.482 567.863 279.482 565.101V335.769C279.482 333.007 281.721 330.769 284.482 330.769H305.265C308.026 330.769 310.265 328.53 310.265 325.769V310.691C310.265 307.929 312.504 305.691 315.265 305.691H328.768C330.424 305.691 331.768 304.347 331.768 302.691V302.691C331.768 301.034 330.424 299.691 328.768 299.691H315.265C312.504 299.691 310.265 297.452 310.265 294.691V61ZM338.784 83.5299C338.784 85.1867 337.441 86.5299 335.784 86.5299H320.055C318.398 86.5299 317.055 85.1867 317.055 83.5299V83.5299C317.055 81.873 318.398 80.5299 320.055 80.5299H335.784C337.441 80.5299 338.784 81.873 338.784 83.5299V83.5299ZM310.265 94.9786C310.265 96.6354 311.608 97.9786 313.265 97.9786H328.994C330.651 97.9786 331.994 96.6354 331.994 94.9786V94.9786C331.994 93.3217 330.651 91.9786 328.994 91.9786H313.265C311.608 91.9786 310.265 93.3217 310.265 94.9786V94.9786ZM338.784 106.427C338.784 108.084 337.441 109.427 335.784 109.427H320.055C318.398 109.427 317.055 108.084 317.055 106.427V106.427C317.055 104.77 318.398 103.427 320.055 103.427H335.784C337.441 103.427 338.784 104.77 338.784 106.427V106.427ZM312.981 118.421C312.981 120.078 314.324 121.421 315.981 121.421H331.71C333.367 121.421 334.71 120.078 334.71 118.421V118.421C334.71 116.764 333.367 115.421 331.71 115.421H315.981C314.324 115.421 312.981 116.764 312.981 118.421V118.421ZM338.784 129.325C338.784 130.981 337.441 132.325 335.784 132.325H320.055C318.398 132.325 317.055 130.981 317.055 129.325V129.325C317.055 127.668 318.398 126.325 320.055 126.325H335.784C337.441 126.325 338.784 127.668 338.784 129.325V129.325ZM312.076 140.773C312.076 142.43 313.419 143.773 315.076 143.773H330.805C332.462 143.773 333.805 142.43 333.805 140.773V140.773C333.805 139.116 332.462 137.773 330.805 137.773H315.076C313.419 137.773 312.076 139.116 312.076 140.773V140.773ZM338.784 152.222C338.784 153.879 337.441 155.222 335.784 155.222H320.055C318.398 155.222 317.055 153.879 317.055 152.222V152.222C317.055 150.565 318.398 149.222 320.055 149.222H335.784C337.441 149.222 338.784 150.565 338.784 152.222V152.222ZM320.903 163.671C320.903 165.328 322.246 166.671 323.903 166.671H330.579C332.235 166.671 333.579 165.328 333.579 163.671V163.671C333.579 162.014 332.235 160.671 330.579 160.671H323.903C322.246 160.671 320.903 162.014 320.903 163.671V163.671ZM338.784 175.119C338.784 176.776 337.441 178.119 335.784 178.119H320.055C318.398 178.119 317.055 176.776 317.055 175.119V175.119C317.055 173.463 318.398 172.119 320.055 172.119H335.784C337.441 172.119 338.784 173.463 338.784 175.119V175.119ZM312.981 187.113C312.981 188.77 314.324 190.113 315.981 190.113H329.22C330.877 190.113 332.22 188.77 332.22 187.113V187.113C332.22 185.456 330.877 184.113 329.22 184.113H315.981C314.324 184.113 312.981 185.456 312.981 187.113V187.113ZM338.784 198.017C338.784 199.674 337.441 201.017 335.784 201.017H320.055C318.398 201.017 317.055 199.674 317.055 198.017V198.017C317.055 196.36 318.398 195.017 320.055 195.017H335.784C337.441 195.017 338.784 196.36 338.784 198.017V198.017ZM312.981 210.011C312.981 211.668 314.324 213.011 315.981 213.011H331.71C333.367 213.011 334.71 211.668 334.71 210.011V210.011C334.71 208.354 333.367 207.011 331.71 207.011H315.981C314.324 207.011 312.981 208.354 312.981 210.011V210.011ZM338.784 220.914C338.784 222.571 337.441 223.914 335.784 223.914H320.055C318.398 223.914 317.055 222.571 317.055 220.914V220.914C317.055 219.257 318.398 217.914 320.055 217.914H335.784C337.441 217.914 338.784 219.257 338.784 220.914V220.914ZM312.981 232.363C312.981 234.02 314.324 235.363 315.981 235.363H325.146C326.803 235.363 328.146 234.02 328.146 232.363V232.363C328.146 230.706 326.803 229.363 325.146 229.363H315.981C314.324 229.363 312.981 230.706 312.981 232.363V232.363ZM338.784 243.812C338.784 245.469 337.441 246.812 335.784 246.812H320.055C318.398 246.812 317.055 245.469 317.055 243.812V243.812C317.055 242.155 318.398 240.812 320.055 240.812H335.784C337.441 240.812 338.784 242.155 338.784 243.812V243.812ZM312.076 254.715C312.076 256.372 313.419 257.715 315.076 257.715H330.805C332.462 257.715 333.805 256.372 333.805 254.715V254.715C333.805 253.058 332.462 251.715 330.805 251.715H315.076C313.419 251.715 312.076 253.058 312.076 254.715V254.715ZM338.784 266.709C338.784 268.366 337.441 269.709 335.784 269.709H320.055C318.398 269.709 317.055 268.366 317.055 266.709V266.709C317.055 265.052 318.398 263.709 320.055 263.709H335.784C337.441 263.709 338.784 265.052 338.784 266.709V266.709ZM312.076 278.158C312.076 279.815 313.419 281.158 315.076 281.158H330.805C332.462 281.158 333.805 279.815 333.805 278.158V278.158C333.805 276.501 332.462 275.158 330.805 275.158H315.076C313.419 275.158 312.076 276.501 312.076 278.158V278.158ZM338.784 289.606C338.784 291.263 337.441 292.606 335.784 292.606H320.055C318.398 292.606 317.055 291.263 317.055 289.606V289.606C317.055 287.95 318.398 286.606 320.055 286.606H335.784C337.441 286.606 338.784 287.95 338.784 289.606V289.606ZM338.784 312.504C338.784 314.161 337.441 315.504 335.784 315.504H320.055C318.398 315.504 317.055 314.161 317.055 312.504V312.504C317.055 310.847 318.398 309.504 320.055 309.504H335.784C337.441 309.504 338.784 310.847 338.784 312.504V312.504ZM312.981 323.953C312.981 325.609 314.324 326.953 315.981 326.953H331.71C333.367 326.953 334.71 325.609 334.71 323.953V323.953C334.71 322.296 333.367 320.953 331.71 320.953H315.981C314.324 320.953 312.981 322.296 312.981 323.953V323.953ZM288.762 352.124C288.762 349.363 291.001 347.124 293.762 347.124H305.039C307.8 347.124 310.039 349.363 310.039 352.124V354.663C310.039 357.424 307.8 359.663 305.039 359.663H293.762C291.001 359.663 288.762 357.424 288.762 354.663V352.124ZM324.525 375.021C324.525 372.26 322.286 370.021 319.525 370.021H293.762C291.001 370.021 288.762 372.26 288.762 375.021V377.56C288.762 380.322 291.001 382.56 293.762 382.56H319.525C322.286 382.56 324.525 380.322 324.525 377.56V375.021ZM288.762 397.919C288.762 395.157 291.001 392.919 293.762 392.919H305.039C307.8 392.919 310.039 395.157 310.039 397.919V400.458C310.039 403.219 307.8 405.458 305.039 405.458H293.762C291.001 405.458 288.762 403.219 288.762 400.458V397.919ZM336.974 420.816C336.974 418.055 334.735 415.816 331.974 415.816H298.742C295.981 415.816 293.742 418.055 293.742 420.816V423.355C293.742 426.117 295.981 428.355 298.742 428.355H331.974C334.735 428.355 336.974 426.117 336.974 423.355V420.816ZM288.762 443.714C288.762 440.952 291.001 438.714 293.762 438.714H305.039C307.8 438.714 310.039 440.952 310.039 443.714V446.253C310.039 449.014 307.8 451.253 305.039 451.253H293.762C291.001 451.253 288.762 449.014 288.762 446.253V443.714ZM331.089 466.611C331.089 463.85 328.85 461.611 326.089 461.611H293.762C291.001 461.611 288.762 463.85 288.762 466.611V469.15C288.762 471.912 291.001 474.15 293.762 474.15H326.089C328.85 474.15 331.089 471.912 331.089 469.15V466.611ZM288.762 489.508C288.762 486.747 291.001 484.508 293.762 484.508H319.525C322.286 484.508 324.525 486.747 324.525 489.508V492.047C324.525 494.809 322.286 497.047 319.525 497.047H293.762C291.001 497.047 288.762 494.809 288.762 492.047V489.508ZM350.78 512.406C350.78 509.644 348.542 507.406 345.78 507.406H293.762C291.001 507.406 288.762 509.644 288.762 512.406V514.945C288.762 517.706 291.001 519.945 293.762 519.945H345.78C348.542 519.945 350.78 517.706 350.78 514.945V512.406ZM280.614 597.453C280.614 594.692 282.853 592.453 285.614 592.453H344.196C346.958 592.453 349.196 594.692 349.196 597.453V599.992C349.196 602.754 346.958 604.992 344.196 604.992H285.614C282.853 604.992 280.614 602.754 280.614 599.992V597.453ZM362.098 577.827C362.098 575.065 359.859 572.827 357.098 572.827H298.516C295.754 572.827 293.516 575.065 293.516 577.827V580.366C293.516 583.127 295.754 585.366 298.516 585.366H357.098C359.859 585.366 362.098 583.127 362.098 580.366V577.827ZM306.417 558.201C306.417 555.439 308.656 553.201 311.417 553.201H369.999C372.761 553.201 374.999 555.439 374.999 558.201V560.74C374.999 563.501 372.761 565.74 369.999 565.74H311.417C308.656 565.74 306.417 563.501 306.417 560.74V558.201ZM360.74 538.574C360.74 535.813 358.501 533.574 355.74 533.574H297.157C294.396 533.574 292.157 535.813 292.157 538.574V541.113C292.157 543.875 294.396 546.113 297.157 546.113H355.74C358.501 546.113 360.74 543.875 360.74 541.113V538.574ZM288.762 620.351C288.762 617.589 291.001 615.351 293.762 615.351H326.089C328.85 615.351 331.089 617.589 331.089 620.351V622.89C331.089 625.651 328.85 627.89 326.089 627.89H293.762C291.001 627.89 288.762 625.651 288.762 622.89V620.351ZM360.74 643.248C360.74 640.487 358.501 638.248 355.74 638.248H308.475C305.713 638.248 303.475 640.487 303.475 643.248V645.787C303.475 648.549 305.713 650.787 308.475 650.787H355.74C358.501 650.787 360.74 648.549 360.74 645.787V643.248ZM299.4 666.145C299.4 663.384 301.639 661.145 304.4 661.145H369.094C371.855 661.145 374.094 663.384 374.094 666.145V668.685C374.094 671.446 371.855 673.685 369.094 673.685H304.4C301.639 673.685 299.4 671.446 299.4 668.685V666.145ZM374.547 711.94C374.547 709.179 372.308 706.94 369.547 706.94H293.762C291.001 706.94 288.762 709.179 288.762 711.94V714.479C288.762 717.241 291.001 719.479 293.762 719.479H369.547C372.308 719.479 374.547 717.241 374.547 714.479V711.94ZM292.157 689.043C292.157 686.281 294.396 684.043 297.157 684.043H344.196C346.958 684.043 349.196 686.281 349.196 689.043V691.582C349.196 694.343 346.958 696.582 344.196 696.582H297.157C294.396 696.582 292.157 694.343 292.157 691.582V689.043ZM367.983 734.838C367.983 732.076 365.744 729.838 362.983 729.838H304.4C301.639 729.838 299.4 732.076 299.4 734.838V737.377C299.4 740.138 301.639 742.377 304.4 742.377H362.983C365.744 742.377 367.983 740.138 367.983 737.377V734.838Z" fill="white" fill-opacity="0.8" shape-rendering="crispEdges"/>
</g>
<g filter="url(#filter3_d_535_2)">
<path fill-rule="evenodd" clip-rule="evenodd" d="M87.5376 423.665C85.4356 424.308 84 426.248 84 428.446V763C84 765.761 86.2386 768 89 768H248.343C251.104 768 253.343 765.761 253.343 763V373.137C253.343 373.062 253.281 373 253.205 373V373C253.192 373 253.178 373.002 253.165 373.006L87.5376 423.665ZM109.561 456.089C109.561 450.566 114.038 446.089 119.561 446.089H121.528C127.051 446.089 131.528 450.566 131.528 456.089V472.034C131.528 477.557 127.051 482.034 121.528 482.034H119.561C114.038 482.034 109.561 477.557 109.561 472.034V456.089ZM119.162 505.599C113.639 505.599 109.162 510.076 109.162 515.599V531.544C109.162 537.067 113.639 541.544 119.162 541.544H121.128C126.651 541.544 131.128 537.067 131.128 531.544V515.599C131.128 510.076 126.651 505.599 121.128 505.599H119.162ZM108.762 575.108C108.762 569.585 113.24 565.108 118.762 565.108H120.729C126.252 565.108 130.729 569.585 130.729 575.108V591.054C130.729 596.576 126.252 601.054 120.729 601.054H118.762C113.24 601.054 108.762 596.576 108.762 591.054V575.108ZM118.363 624.618C112.84 624.618 108.363 629.095 108.363 634.618V650.563C108.363 656.086 112.84 660.563 118.363 660.563H120.33C125.852 660.563 130.33 656.086 130.33 650.563V634.618C130.33 629.095 125.852 624.618 120.33 624.618H118.363ZM107.964 694.127C107.964 688.605 112.441 684.127 117.964 684.127H119.93C125.453 684.127 129.93 688.605 129.93 694.127V710.073C129.93 715.596 125.453 720.073 119.93 720.073H117.964C112.441 720.073 107.964 715.596 107.964 710.073V694.127ZM151.912 446.089C146.389 446.089 141.912 450.566 141.912 456.089V472.034C141.912 477.557 146.389 482.034 151.912 482.034H153.879C159.402 482.034 163.879 477.557 163.879 472.034V456.089C163.879 450.566 159.402 446.089 153.879 446.089H151.912ZM141.513 515.599C141.513 510.076 145.99 505.599 151.513 505.599H153.479C159.002 505.599 163.479 510.076 163.479 515.599V531.544C163.479 537.067 159.002 541.544 153.479 541.544H151.513C145.99 541.544 141.513 537.067 141.513 531.544V515.599ZM151.113 565.108C145.59 565.108 141.113 569.585 141.113 575.108V591.054C141.113 596.576 145.59 601.054 151.113 601.054H153.08C158.603 601.054 163.08 596.576 163.08 591.054V575.108C163.08 569.585 158.603 565.108 153.08 565.108H151.113ZM140.714 634.618C140.714 629.095 145.191 624.618 150.714 624.618H152.68C158.203 624.618 162.68 629.095 162.68 634.618V650.563C162.68 656.086 158.203 660.563 152.68 660.563H150.714C145.191 660.563 140.714 656.086 140.714 650.563V634.618ZM150.314 684.127C144.792 684.127 140.314 688.605 140.314 694.127V710.073C140.314 715.596 144.792 720.073 150.314 720.073H152.281C157.804 720.073 162.281 715.596 162.281 710.073V694.127C162.281 688.605 157.804 684.127 152.281 684.127H150.314ZM174.263 456.089C174.263 450.566 178.74 446.089 184.263 446.089H186.23C191.752 446.089 196.23 450.566 196.23 456.089V472.034C196.23 477.557 191.752 482.034 186.23 482.034H184.263C178.74 482.034 174.263 477.557 174.263 472.034V456.089ZM183.863 505.599C178.341 505.599 173.863 510.076 173.863 515.599V531.544C173.863 537.067 178.341 541.544 183.863 541.544H185.83C191.353 541.544 195.83 537.067 195.83 531.544V515.599C195.83 510.076 191.353 505.599 185.83 505.599H183.863ZM173.464 575.108C173.464 569.585 177.941 565.108 183.464 565.108H185.431C190.954 565.108 195.431 569.585 195.431 575.108V591.054C195.431 596.576 190.954 601.054 185.431 601.054H183.464C177.941 601.054 173.464 596.576 173.464 591.054V575.108ZM183.065 624.618C177.542 624.618 173.065 629.095 173.065 634.618V650.563C173.065 656.086 177.542 660.563 183.065 660.563H185.031C190.554 660.563 195.031 656.086 195.031 650.563V634.618C195.031 629.095 190.554 624.618 185.031 624.618H183.065ZM172.665 694.127C172.665 688.605 177.142 684.127 182.665 684.127H184.632C190.155 684.127 194.632 688.605 194.632 694.127V710.073C194.632 715.596 190.155 720.073 184.632 720.073H182.665C177.142 720.073 172.665 715.596 172.665 710.073V694.127ZM216.614 446.089C211.091 446.089 206.614 450.566 206.614 456.089V472.034C206.614 477.557 211.091 482.034 216.614 482.034H218.58C224.103 482.034 228.58 477.557 228.58 472.034V456.089C228.58 450.566 224.103 446.089 218.58 446.089H216.614ZM206.214 515.599C206.214 510.076 210.692 505.599 216.214 505.599H218.181C223.704 505.599 228.181 510.076 228.181 515.599V531.544C228.181 537.067 223.704 541.544 218.181 541.544H216.214C210.692 541.544 206.214 537.067 206.214 531.544V515.599ZM215.815 565.108C210.292 565.108 205.815 569.585 205.815 575.108V591.054C205.815 596.576 210.292 601.054 215.815 601.054H217.782C223.304 601.054 227.782 596.576 227.782 591.054V575.108C227.782 569.585 223.304 565.108 217.782 565.108H215.815ZM205.416 634.618C205.416 629.095 209.893 624.618 215.416 624.618H217.382C222.905 624.618 227.382 629.095 227.382 634.618V650.563C227.382 656.086 222.905 660.563 217.382 660.563H215.416C209.893 660.563 205.416 656.086 205.416 650.563V634.618ZM215.016 684.127C209.493 684.127 205.016 688.605 205.016 694.127V710.073C205.016 715.596 209.493 720.073 215.016 720.073H216.983C222.506 720.073 226.983 715.596 226.983 710.073V694.127C226.983 688.605 222.506 684.127 216.983 684.127H215.016Z" fill="white" fill-opacity="0.8" shape-rendering="crispEdges"/>
</g>
<g filter="url(#filter4_d_535_2)">
<path fill-rule="evenodd" clip-rule="evenodd" d="M0 555C0 552.239 2.23858 550 5 550H78.8807C81.6421 550 83.8807 552.239 83.8807 555V763C83.8807 765.761 81.6421 768 78.8807 768H5C2.23858 768 0 765.761 0 763V555ZM14.8025 572.652C14.8025 570.051 16.9112 567.942 19.5123 567.942V567.942C22.1135 567.942 24.2222 570.051 24.2222 572.652V583.866C24.2222 586.467 22.1135 588.576 19.5123 588.576V588.576C16.9112 588.576 14.8025 586.467 14.8025 583.866V572.652ZM24.2222 608.986C24.2222 606.384 22.1135 604.276 19.5123 604.276V604.276C16.9112 604.276 14.8025 606.384 14.8025 608.986V620.2C14.8025 622.801 16.9112 624.909 19.5123 624.909V624.909C22.1135 624.909 24.2222 622.801 24.2222 620.2V608.986ZM14.8025 645.319C14.8025 642.718 16.9112 640.609 19.5123 640.609V640.609C22.1135 640.609 24.2222 642.718 24.2222 645.319V656.533C24.2222 659.134 22.1135 661.243 19.5123 661.243V661.243C16.9112 661.243 14.8025 659.134 14.8025 656.533V645.319ZM24.2222 681.652C24.2222 679.051 22.1135 676.942 19.5123 676.942V676.942C16.9112 676.942 14.8025 679.051 14.8025 681.652V692.866C14.8025 695.467 16.9112 697.576 19.5123 697.576V697.576C22.1135 697.576 24.2222 695.467 24.2222 692.866V681.652ZM14.8025 717.986C14.8025 715.384 16.9112 713.276 19.5123 713.276V713.276C22.1135 713.276 24.2222 715.384 24.2222 717.986V729.2C24.2222 731.801 22.1135 733.909 19.5123 733.909V733.909C16.9112 733.909 14.8025 731.801 14.8025 729.2V717.986ZM46.6502 582.969C46.6502 580.368 44.5415 578.259 41.9403 578.259V578.259C39.3391 578.259 37.2305 580.368 37.2305 582.969V594.183C37.2305 596.784 39.3391 598.893 41.9403 598.893V598.893C44.5415 598.893 46.6502 596.784 46.6502 594.183V582.969ZM37.2305 653.393C37.2305 650.792 39.3391 648.683 41.9403 648.683V648.683C44.5415 648.683 46.6502 650.792 46.6502 653.393V664.607C46.6502 667.208 44.5415 669.317 41.9403 669.317V669.317C39.3391 669.317 37.2305 667.208 37.2305 664.607V653.393ZM46.6502 691.969C46.6502 689.368 44.5415 687.259 41.9403 687.259V687.259C39.3391 687.259 37.2305 689.368 37.2305 691.969V703.183C37.2305 705.784 39.3391 707.893 41.9403 707.893V707.893C44.5415 707.893 46.6502 705.784 46.6502 703.183V691.969ZM37.2305 730.545C37.2305 727.944 39.3391 725.835 41.9403 725.835V725.835C44.5415 725.835 46.6502 727.944 46.6502 730.545V741.759C46.6502 744.36 44.5415 746.469 41.9403 746.469V746.469C39.3391 746.469 37.2305 744.36 37.2305 741.759V730.545ZM69.0782 572.652C69.0782 570.051 66.9695 567.942 64.3683 567.942V567.942C61.7671 567.942 59.6584 570.051 59.6584 572.652V583.866C59.6584 586.467 61.7671 588.576 64.3683 588.576V588.576C66.9695 588.576 69.0782 586.467 69.0782 583.866V572.652ZM59.6584 608.986C59.6584 606.384 61.7671 604.276 64.3683 604.276V604.276C66.9695 604.276 69.0782 606.384 69.0782 608.986V620.2C69.0782 622.801 66.9695 624.909 64.3683 624.909V624.909C61.7671 624.909 59.6584 622.801 59.6584 620.2V608.986ZM69.0782 645.319C69.0782 642.718 66.9695 640.609 64.3683 640.609V640.609C61.7671 640.609 59.6584 642.718 59.6584 645.319V656.533C59.6584 659.134 61.7671 661.243 64.3683 661.243V661.243C66.9695 661.243 69.0782 659.134 69.0782 656.533V645.319ZM59.6584 681.652C59.6584 679.051 61.7671 676.942 64.3683 676.942V676.942C66.9695 676.942 69.0782 679.051 69.0782 681.652V692.866C69.0782 695.467 66.9695 697.576 64.3683 697.576V697.576C61.7671 697.576 59.6584 695.467 59.6584 692.866V681.652ZM69.0782 717.986C69.0782 715.384 66.9695 713.276 64.3683 713.276V713.276C61.7671 713.276 59.6584 715.384 59.6584 717.986V729.2C59.6584 731.801 61.7671 733.909 64.3683 733.909V733.909C66.9695 733.909 69.0782 731.801 69.0782 729.2V717.986Z" fill="white" fill-opacity="0.8" shape-rendering="crispEdges"/>
</g>
<g filter="url(#filter5_d_535_2)">
<path fill-rule="evenodd" clip-rule="evenodd" d="M405 382C405 381.448 404.552 381 404 381V381C403.448 381 403 381.448 403 382V425V480V737C403 739.761 405.239 742 408 742H510.5C511.328 742 512 742.672 512 743.5V743.5C512 744.328 511.328 745 510.5 745H408C405.239 745 403 747.239 403 750V766C403 767.105 403.895 768 405 768V768H420H436H455H461H478H494H508C510.761 768 513 765.761 513 763V656C513 653.239 510.761 651 508 651H499C496.239 651 494 648.761 494 646V514C494 511.239 491.761 509 489 509H483C480.239 509 478 506.761 478 504V496C478 493.239 475.761 491 473 491H466C463.239 491 461 488.761 461 486V485C461 482.239 458.761 480 456 480H441C438.239 480 436 477.761 436 475V430C436 427.239 433.761 425 431 425H410C407.239 425 405 422.761 405 420V382ZM490.5 519C491.328 519 492 519.672 492 520.5V520.5C492 521.328 491.328 522 490.5 522H437.5C436.672 522 436 521.328 436 520.5V520.5C436 519.672 436.672 519 437.5 519H490.5ZM461 501C461 503.761 458.761 506 456 506H432C429.239 506 427 503.761 427 501V501C427 498.239 429.239 496 432 496H456C458.761 496 461 498.239 461 501V501ZM461 509H432C429.239 509 427 511.239 427 514V527C427 529.761 429.239 532 432 532H478.5C479.328 532 480 532.672 480 533.5V533.5C480 534.328 479.328 535 478.5 535H432C429.239 535 427 537.239 427 540V540C427 542.761 429.239 545 432 545H481.5C482.328 545 483 545.672 483 546.5V546.5C483 547.328 482.328 548 481.5 548H432C429.239 548 427 550.239 427 553V553C427 555.761 429.239 558 432 558H481.5C482.328 558 483 558.672 483 559.5V559.5C483 560.328 482.328 561 481.5 561H432C429.239 561 427 563.239 427 566V566C427 568.761 429.239 571 432 571H480.5C481.328 571 482 571.672 482 572.5V572.5C482 573.328 481.328 574 480.5 574H432C429.239 574 427 576.239 427 579V625.5C427 624.672 427.672 624 428.5 624C429.328 624 430 624.672 430 625.5V728.5C430 729.328 429.328 730 428.5 730C427.672 730 427 729.328 427 728.5V628.5C427 629.328 426.328 630 425.5 630C424.672 630 424 629.328 424 628.5V535V532V509V506V446.5C424 445.672 424.672 445 425.5 445C426.328 445 427 445.672 427 446.5V488C427 490.761 429.239 493 432 493H461V493C462.657 493 464 494.343 464 496V496V506C464 507.657 462.657 509 461 509V509ZM490.5 584C491.328 584 492 584.672 492 585.5V585.5C492 586.328 491.328 587 490.5 587H437.5C436.672 587 436 586.328 436 585.5V585.5C436 584.672 436.672 584 437.5 584H490.5ZM488 598.5C488 597.672 487.328 597 486.5 597H433.5C432.672 597 432 597.672 432 598.5V598.5C432 599.328 432.672 600 433.5 600H486.5C487.328 600 488 599.328 488 598.5V598.5ZM488 610C490.209 610 492 611.791 492 614V614C492 616.209 490.209 618 488 618H440C437.791 618 436 616.209 436 614V614C436 611.791 437.791 610 440 610H488ZM487 641C489.761 641 492 638.761 492 636V635C492 632.239 489.761 630 487 630H441C438.239 630 436 632.239 436 635V636C436 638.761 438.239 641 441 641H487ZM490.5 649C491.328 649 492 649.672 492 650.5V650.5C492 651.328 491.328 652 490.5 652H437.5C436.672 652 436 651.328 436 650.5V650.5C436 649.672 436.672 649 437.5 649H490.5ZM508 666C508 668.209 506.209 670 504 670H482C479.791 670 478 668.209 478 666V666C478 663.791 479.791 662 482 662H504C506.209 662 508 663.791 508 666V666ZM436 666C436 663.791 437.791 662 440 662H462C464.209 662 466 663.791 466 666V666C466 668.209 464.209 670 462 670H440C437.791 670 436 668.209 436 666V666ZM478 686C478 688.209 479.791 690 482 690H504C506.209 690 508 688.209 508 686V686C508 683.791 506.209 682 504 682H482C479.791 682 478 683.791 478 686V686ZM466 686C466 683.791 464.209 682 462 682H440C437.791 682 436 683.791 436 686V686C436 688.209 437.791 690 440 690H462C464.209 690 466 688.209 466 686V686ZM508 706C508 708.209 506.209 710 504 710H482C479.791 710 478 708.209 478 706V706C478 703.791 479.791 702 482 702H504C506.209 702 508 703.791 508 706V706ZM436 706C436 703.791 437.791 702 440 702H462C464.209 702 466 703.791 466 706V706C466 708.209 464.209 710 462 710H440C437.791 710 436 708.209 436 706V706ZM478 726C478 728.209 479.791 730 482 730H504C506.209 730 508 728.209 508 726V726C508 723.791 506.209 722 504 722H482C479.791 722 478 723.791 478 726V726ZM466 726C466 723.791 464.209 722 462 722H440C437.791 722 436 723.791 436 726V726C436 728.209 437.791 730 440 730H462C464.209 730 466 728.209 466 726V726Z" fill="white" fill-opacity="0.8" shape-rendering="crispEdges"/>
</g>
<defs>
<filter id="filter0_d_535_2" x="300.288" y="0.164276" width="63.0674" height="50.7662" filterUnits="userSpaceOnUse" color-interpolation-filters="sRGB">
<feFlood flood-opacity="0" result="BackgroundImageFix"/>
<feColorMatrix in="SourceAlpha" type="matrix" values="0 0 0 0 0 0 0 0 0 0 0 0 0 0 0 0 0 0 127 0" result="hardAlpha"/>
<feOffset dx="4" dy="4"/>
<feGaussianBlur stdDeviation="2"/>
<feComposite in2="hardAlpha" operator="out"/>
<feColorMatrix type="matrix" values="0 0 0 0 0 0 0 0 0 0 0 0 0 0 0 0 0 0 0.25 0"/>
<feBlend mode="normal" in2="BackgroundImageFix" result="effect1_dropShadow_535_2"/>
<feBlend mode="normal" in="SourceGraphic" in2="effect1_dropShadow_535_2" result="shape"/>
</filter>
<filter id="filter1_d_535_2" x="313.538" y="14" width="28.9233" height="27.8992" filterUnits="userSpaceOnUse" color-interpolation-filters="sRGB">
<feFlood flood-opacity="0" result="BackgroundImageFix"/>
<feColorMatrix in="SourceAlpha" type="matrix" values="0 0 0 0 0 0 0 0 0 0 0 0 0 0 0 0 0 0 127 0" result="hardAlpha"/>
<feOffset dy="4"/>
<feGaussianBlur stdDeviation="2"/>
<feComposite in2="hardAlpha" operator="out"/>
<feColorMatrix type="matrix" values="0 0 0 0 0 0 0 0 0 0 0 0 0 0 0 0 0 0 0.25 0"/>
<feBlend mode="normal" in2="BackgroundImageFix" result="effect1_dropShadow_535_2"/>
<feBlend mode="normal" in="SourceGraphic" in2="effect1_dropShadow_535_2" result="shape"/>
</filter>
<filter id="filter2_d_535_2" x="253" y="56" width="157.84" height="720" filterUnits="userSpaceOnUse" color-interpolation-filters="sRGB">
<feFlood flood-opacity="0" result="BackgroundImageFix"/>
<feColorMatrix in="SourceAlpha" type="matrix" values="0 0 0 0 0 0 0 0 0 0 0 0 0 0 0 0 0 0 127 0" result="hardAlpha"/>
<feOffset dx="4" dy="4"/>
<feGaussianBlur stdDeviation="2"/>
<feComposite in2="hardAlpha" operator="out"/>
<feColorMatrix type="matrix" values="0 0 0 0 0 0 0 0 0 0 0 0 0 0 0 0 0 0 0.25 0"/>
<feBlend mode="normal" in2="BackgroundImageFix" result="effect1_dropShadow_535_2"/>
<feBlend mode="normal" in="SourceGraphic" in2="effect1_dropShadow_535_2" result="shape"/>
</filter>
<filter id="filter3_d_535_2" x="84" y="373" width="177.343" height="403" filterUnits="userSpaceOnUse" color-interpolation-filters="sRGB">
<feFlood flood-opacity="0" result="BackgroundImageFix"/>
<feColorMatrix in="SourceAlpha" type="matrix" values="0 0 0 0 0 0 0 0 0 0 0 0 0 0 0 0 0 0 127 0" result="hardAlpha"/>
<feOffset dx="4" dy="4"/>
<feGaussianBlur stdDeviation="2"/>
<feComposite in2="hardAlpha" operator="out"/>
<feColorMatrix type="matrix" values="0 0 0 0 0 0 0 0 0 0 0 0 0 0 0 0 0 0 0.25 0"/>
<feBlend mode="normal" in2="BackgroundImageFix" result="effect1_dropShadow_535_2"/>
<feBlend mode="normal" in="SourceGraphic" in2="effect1_dropShadow_535_2" result="shape"/>
</filter>
<filter id="filter4_d_535_2" x="0" y="550" width="91.8806" height="226" filterUnits="userSpaceOnUse" color-interpolation-filters="sRGB">
<feFlood flood-opacity="0" result="BackgroundImageFix"/>
<feColorMatrix in="SourceAlpha" type="matrix" values="0 0 0 0 0 0 0 0 0 0 0 0 0 0 0 0 0 0 127 0" result="hardAlpha"/>
<feOffset dx="4" dy="4"/>
<feGaussianBlur stdDeviation="2"/>
<feComposite in2="hardAlpha" operator="out"/>
<feColorMatrix type="matrix" values="0 0 0 0 0 0 0 0 0 0 0 0 0 0 0 0 0 0 0.25 0"/>
<feBlend mode="normal" in2="BackgroundImageFix" result="effect1_dropShadow_535_2"/>
<feBlend mode="normal" in="SourceGraphic" in2="effect1_dropShadow_535_2" result="shape"/>
</filter>
<filter id="filter5_d_535_2" x="403" y="381" width="118" height="395" filterUnits="userSpaceOnUse" color-interpolation-filters="sRGB">
<feFlood flood-opacity="0" result="BackgroundImageFix"/>
<feColorMatrix in="SourceAlpha" type="matrix" values="0 0 0 0 0 0 0 0 0 0 0 0 0 0 0 0 0 0 127 0" result="hardAlpha"/>
<feOffset dx="4" dy="4"/>
<feGaussianBlur stdDeviation="2"/>
<feComposite in2="hardAlpha" operator="out"/>
<feColorMatrix type="matrix" values="0 0 0 0 0 0 0 0 0 0 0 0 0 0 0 0 0 0 0.25 0"/>
<feBlend mode="normal" in2="BackgroundImageFix" result="effect1_dropShadow_535_2"/>
<feBlend mode="normal" in="SourceGraphic" in2="effect1_dropShadow_535_2" result="shape"/>
</filter>
</defs>
</svg>
