<svg width="49" height="42" viewBox="0 0 49 42" fill="none" xmlns="http://www.w3.org/2000/svg">
<path d="M24.5 42C24.1776 42.0018 23.858 41.9395 23.5596 41.8166C23.2611 41.6936 22.9896 41.5125 22.7607 41.2835L3.72678 22.0618C1.33923 19.6286 0 16.3436 0 12.9204C0 9.4971 1.33923 6.21209 3.72678 3.77894C6.133 1.35896 9.39246 0 12.7906 0C16.1887 0 19.4481 1.35896 21.8544 3.77894L24.5 6.44724L27.1456 3.77894C29.5519 1.35896 32.8113 0 36.2094 0C39.6075 0 42.867 1.35896 45.2732 3.77894C47.6608 6.21209 49 9.4971 49 12.9204C49 16.3436 47.6608 19.6286 45.2732 22.0618L26.2393 41.2835C26.0104 41.5125 25.7389 41.6936 25.4404 41.8166C25.142 41.9395 24.8224 42.0018 24.5 42Z" fill="#C2C2C2"/>
</svg>
