<svg width="16" height="14" viewBox="0 0 16 14" fill="none" xmlns="http://www.w3.org/2000/svg">
<path d="M7.33002 12.5056H7.30239C3.26878 12.5032 0 9.76693 0 6.39189C0 4.70377 0.817774 3.17544 2.13997 2.06912C3.46203 0.964349 5.28757 0.281128 7.30386 0.281128C11.3396 0.281128 14.6113 3.01831 14.6113 6.39481V6.39876V6.39855V6.41435C14.6113 7.06302 14.4879 7.6876 14.2596 8.27251L14.2739 8.23022L13.5809 8.04773C13.7728 7.56061 13.8834 6.99991 13.8834 6.4176C13.8834 6.41176 13.8834 6.40591 13.8834 6.40008V6.39287C13.8834 3.35233 10.9373 0.887491 7.30313 0.887491C5.48651 0.887491 3.84182 1.50339 2.6511 2.4992C1.46046 3.49544 0.724019 4.8717 0.724019 6.39186C0.724019 9.4324 3.67011 11.8972 7.3043 11.8972H7.31071H7.31039L7.33112 11.8973C8.02733 11.8973 8.6977 11.8047 9.32562 11.6334L9.28014 11.6441L9.49825 12.2239C8.85033 12.4025 8.10457 12.5055 7.33004 12.5056L7.33002 12.5056ZM2.61186 10.6745L2.09198 10.2487C3.42127 9.11857 5.26726 8.41674 7.30922 8.41154H7.32163C8.24402 8.41154 9.12583 8.55685 9.93615 8.82163L9.88723 8.80756C10.1315 8.882 10.3353 8.95927 10.531 9.04749L10.5053 9.0369L10.1643 9.57404C10.019 9.50783 9.84488 9.44202 9.66485 9.38646L9.63641 9.37877H9.62984C8.94477 9.15273 8.15124 9.02168 7.32116 9.02168H7.30905H7.30968C5.47052 9.02605 3.80868 9.65751 2.6127 10.6738L2.61186 10.6745ZM7.29877 4.37832H7.29511C6.37075 4.37832 5.48705 4.23253 4.67516 3.96697L4.72411 3.98109C3.69241 3.65153 2.81362 3.16107 2.09285 2.54132L2.09124 2.53995L2.6133 2.11412C3.26281 2.67264 4.05304 3.11363 4.93642 3.39735L4.98076 3.40986C5.66763 3.6363 6.46319 3.76757 7.29539 3.76757H7.30814H7.30749H7.31849C8.14899 3.76757 8.94294 3.63652 9.67235 3.39779L9.62839 3.41047C10.5579 3.11526 11.3499 2.67478 11.9996 2.11766L12.0009 2.11656L12.523 2.54239C11.801 3.16256 10.923 3.65237 9.94166 3.96775L9.89232 3.9817C9.13072 4.23279 8.24862 4.37834 7.32588 4.37834H7.31411H7.31474L7.29877 4.37832ZM7.31111 0.284253C8.21202 0.284253 9.02927 0.953431 9.6124 2.17677C10.1458 3.3684 10.4546 4.74546 10.4546 6.18282C10.4546 6.25848 10.4537 6.33395 10.452 6.40926L10.4522 6.39798C10.4537 6.462 10.4545 6.53749 10.4545 6.61312C10.4545 8.05051 10.1458 9.42756 9.5808 10.7004L9.61237 10.6192C9.02924 11.8425 8.21197 12.5117 7.31108 12.5117C6.4102 12.5117 5.59298 11.8425 5.00986 10.6192C4.47641 9.42752 4.1677 8.05049 4.1677 6.6131C4.1677 6.53745 4.16854 6.46198 4.17025 6.38667L4.17004 6.39796C4.16854 6.33395 4.1677 6.25845 4.1677 6.18282C4.1677 4.74543 4.47641 3.3684 5.04143 2.09555L5.00986 2.17677C5.59298 0.953431 6.41026 0.284266 7.31114 0.284266L7.31111 0.284253ZM7.31111 11.9034C8.45268 11.9034 9.72511 9.64221 9.72511 6.39798C9.72511 3.15375 8.45268 0.892604 7.31114 0.892604C6.16961 0.892604 4.89714 3.15375 4.89714 6.39798C4.89714 9.64221 6.16958 11.9034 7.31111 11.9034ZM11.6883 13.6675H9.0271V11.441C9.02999 9.44968 10.9587 7.83605 13.3385 7.83363H16V10.0601C15.9971 12.0514 14.0684 13.6651 11.6886 13.6675H11.6883H11.6883ZM9.7542 13.0592H11.6883C13.667 13.0571 15.2704 11.7156 15.2729 10.0603V8.44197H13.3388C11.3601 8.44403 9.75667 9.78551 9.75418 11.4408V11.441L9.7542 13.0592ZM9.64805 13.5787L9.13398 13.1486L12.7041 10.1617L13.2181 10.5918L9.64805 13.5787ZM14.2477 6.70214H0.367269V6.09382H14.2477L14.2477 6.70214Z" fill="black"/>
</svg>
