<svg width="41" height="33" viewBox="0 0 41 33" fill="none" xmlns="http://www.w3.org/2000/svg">
<path d="M6.57823 6.45202H27.4609C31.0923 6.45533 34.035 8.79733 34.0392 11.6871V22.7674C34.035 25.6575 31.0923 27.9995 27.4613 28.0027H25.3471V32.8219L13.2111 28.0027H6.57823C2.94678 27.9994 0.0041504 25.6574 0 22.7677V11.6874C0.0041504 8.7973 2.94686 6.45529 6.57784 6.45202H6.57823ZM27.4609 25.8274C29.5836 25.8257 31.3037 24.4567 31.3058 22.7675V11.6875C31.3038 9.9981 29.5836 8.62909 27.4612 8.62738H6.57827C4.45561 8.62906 2.73547 9.9981 2.73335 11.6873V22.7673C2.73539 24.4567 4.45557 25.8257 6.57795 25.8274H13.8671L22.6138 29.308V25.8274L27.4609 25.8274ZM34.5038 22.4628H32.6725V20.2874H34.4838C36.5631 20.2506 38.2348 18.913 38.2667 17.2588V6.14751C38.2667 4.4575 36.5453 3.08746 34.4218 3.08746H13.5391C11.4156 3.08746 9.6942 4.4575 9.6942 6.14751V7.59779H6.96081V6.14751C6.96081 3.25608 9.90602 0.912109 13.5391 0.912109H34.4218C38.0548 0.912109 41 3.25611 41 6.14751V17.2636C40.9747 20.1142 38.0908 22.4222 34.5177 22.4627L34.5129 22.4627L34.5038 22.4628Z" fill="#196F21"/>
</svg>
