<svg width="38" height="51" viewBox="0 0 38 51" fill="none" xmlns="http://www.w3.org/2000/svg">
<path d="M35.7433 18.8717C35.7433 33.6233 18.8717 48.375 18.8717 48.375C18.8717 48.375 2 33.6233 2 18.8717C2 14.397 3.77755 10.1056 6.9416 6.9416C10.1056 3.77755 14.397 2 18.8717 2C23.3463 2 27.6377 3.77755 30.8017 6.9416C33.9658 10.1056 35.7433 14.397 35.7433 18.8717Z" stroke="white" stroke-width="3" stroke-miterlimit="10"/>
<path d="M18.8717 25.1875C22.3599 25.1875 25.1876 22.3598 25.1876 18.8717C25.1876 15.3835 22.3599 12.5558 18.8717 12.5558C15.3836 12.5558 12.5559 15.3835 12.5559 18.8717C12.5559 22.3598 15.3836 25.1875 18.8717 25.1875Z" stroke="white" stroke-width="1.91" stroke-miterlimit="10"/>
</svg>
