<svg width="48" height="48" viewBox="0 0 48 48" fill="none" xmlns="http://www.w3.org/2000/svg">
<path d="M47.875 2.50002C47.8502 2.28184 47.8024 2.06689 47.7325 1.85877V1.64502C47.6186 1.3807 47.4576 1.13927 47.2575 0.932515C47.0559 0.743144 46.8228 0.590433 46.5687 0.481265H46.355C46.1361 0.314089 45.8856 0.19291 45.6187 0.125015H45.5C45.2638 0.0891876 45.0236 0.0891876 44.7875 0.125015L2.03746 14.375C1.5623 14.5312 1.14857 14.8334 0.855266 15.2385C0.561962 15.6437 0.404053 16.1311 0.404053 16.6313C0.404053 17.1314 0.561962 17.6188 0.855266 18.024C1.14857 18.4291 1.5623 18.7313 2.03746 18.8875L22.2962 25.6325L29.0412 45.8913C29.1974 46.3664 29.4996 46.7801 29.9047 47.0735C30.3099 47.3668 30.7973 47.5247 31.2975 47.5247C31.7976 47.5247 32.285 47.3668 32.6902 47.0735C33.0953 46.7801 33.3975 46.3664 33.5537 45.8913L47.8037 3.14126C47.8565 2.93175 47.8805 2.71601 47.875 2.50002ZM36.7125 7.93876L23.4837 21.1675L10.255 16.75L36.7125 7.93876ZM31.25 37.745L26.8325 24.5163L40.0612 11.2875L31.25 37.745Z" fill="#FFFEFE"/>
</svg>
