<svg width="39" height="39" viewBox="0 0 39 39" fill="none" xmlns="http://www.w3.org/2000/svg">
<path d="M0.983994 34.9493L8.2016 27.7529C5.87289 24.7862 4.60933 21.1226 4.61402 17.3511C4.61402 13.9922 5.61003 10.7088 7.47611 7.91605C9.34218 5.12327 11.9945 2.94657 15.0977 1.6612C18.2008 0.375827 21.6155 0.0395155 24.9098 0.694793C28.2041 1.35007 31.2301 2.96751 33.6051 5.34256C35.9802 7.71762 37.5976 10.7436 38.2529 14.0379C38.9082 17.3322 38.5719 20.7469 37.2865 23.85C36.0011 26.9532 33.8244 29.6055 31.0316 31.4716C28.2389 33.3377 24.9555 34.3337 21.5966 34.3337C17.8251 34.3384 14.1615 33.0748 11.1948 30.7461L3.9984 37.9637C3.80106 38.1627 3.56627 38.3206 3.30759 38.4284C3.0489 38.5361 2.77143 38.5916 2.4912 38.5916C2.21096 38.5916 1.93349 38.5361 1.67481 38.4284C1.41612 38.3206 1.18134 38.1627 0.983994 37.9637C0.785023 37.7664 0.627094 37.5316 0.519321 37.2729C0.411549 37.0142 0.356064 36.7367 0.356064 36.4565C0.356064 36.1763 0.411549 35.8988 0.519321 35.6401C0.627094 35.3814 0.785023 35.1466 0.983994 34.9493ZM34.3336 17.3511C34.3336 14.8319 33.5866 12.3694 32.187 10.2748C30.7875 8.18023 28.7982 6.5477 26.4708 5.58367C24.1435 4.61964 21.5825 4.3674 19.1118 4.85886C16.641 5.35032 14.3715 6.5634 12.5902 8.34469C10.8089 10.126 9.59586 12.3955 9.10441 14.8662C8.61295 17.3369 8.86518 19.8979 9.82921 22.2253C10.7932 24.5527 12.4258 26.5419 14.5203 27.9415C16.6149 29.341 19.0775 30.088 21.5966 30.088C24.9747 30.088 28.2144 28.7461 30.603 26.3575C32.9916 23.9688 34.3336 20.7291 34.3336 17.3511Z" fill="white"/>
</svg>
