<svg width="51" height="51" viewBox="0 0 51 51" fill="none" xmlns="http://www.w3.org/2000/svg">
<path d="M6.98387 40.9493L14.2015 33.7529C11.8728 30.7862 10.6092 27.1226 10.6139 23.3511C10.6139 19.9922 11.6099 16.7088 13.476 13.916C15.3421 11.1233 17.9944 8.94657 21.0975 7.6612C24.2007 6.37583 27.6153 6.03952 30.9096 6.69479C34.2039 7.35007 37.2299 8.96751 39.605 11.3426C41.9801 13.7176 43.5975 16.7436 44.2528 20.0379C44.9081 23.3322 44.5717 26.7469 43.2864 29.85C42.001 32.9532 39.8243 35.6055 37.0315 37.4716C34.2387 39.3377 30.9553 40.3337 27.5965 40.3337C23.825 40.3384 20.1614 39.0748 17.1947 36.7461L9.99828 43.9637C9.80093 44.1627 9.56615 44.3206 9.30746 44.4284C9.04878 44.5361 8.77131 44.5916 8.49107 44.5916C8.21083 44.5916 7.93337 44.5361 7.67469 44.4284C7.416 44.3206 7.18122 44.1627 6.98387 43.9637C6.7849 43.7664 6.62697 43.5316 6.5192 43.2729C6.41143 43.0142 6.35594 42.7367 6.35594 42.4565C6.35594 42.1763 6.41143 41.8988 6.5192 41.6401C6.62697 41.3814 6.7849 41.1466 6.98387 40.9493ZM40.3334 23.3511C40.3334 20.8319 39.5864 18.3694 38.1869 16.2748C36.7873 14.1802 34.7981 12.5477 32.4707 11.5837C30.1433 10.6196 27.5824 10.3674 25.1116 10.8589C22.6409 11.3503 20.3714 12.5634 18.5901 14.3447C16.8088 16.126 15.5957 18.3955 15.1043 20.8662C14.6128 23.3369 14.8651 25.8979 15.8291 28.2253C16.7931 30.5527 18.4256 32.5419 20.5202 33.9415C22.6148 35.341 25.0774 36.088 27.5965 36.088C30.9745 36.088 34.2142 34.7461 36.6029 32.3575C38.9915 29.9688 40.3334 26.7291 40.3334 23.3511Z" fill="black"/>
</svg>
