<svg width="16" height="32" viewBox="0 0 16 32" fill="none" xmlns="http://www.w3.org/2000/svg">
<path d="M2.27052 31.9959C1.74094 31.9969 1.22772 31.8113 0.819939 31.4713C0.590434 31.2799 0.400722 31.0447 0.261665 30.7794C0.122609 30.514 0.0369428 30.2237 0.00957252 29.925C-0.0177978 29.6263 0.0136662 29.3251 0.102162 29.0386C0.190657 28.7521 0.334444 28.4861 0.52529 28.2556L10.6793 16.0313L0.887937 3.78415C0.699665 3.55087 0.559069 3.28244 0.474228 2.99431C0.389388 2.70617 0.361977 2.404 0.393571 2.10517C0.425164 1.80634 0.515138 1.51674 0.658324 1.25301C0.801509 0.989284 0.995082 0.756631 1.22792 0.568425C1.46242 0.360802 1.73705 0.204195 2.03456 0.108432C2.33207 0.0126696 2.64604 -0.0201802 2.95677 0.0119425C3.26749 0.0440653 3.56827 0.140468 3.84021 0.295101C4.11215 0.449734 4.3494 0.659257 4.53705 0.910524L15.4844 14.5945C15.8178 15.0025 16 15.5144 16 16.0427C16 16.5709 15.8178 17.0828 15.4844 17.4909L4.15174 31.1748C3.92437 31.4508 3.63554 31.669 3.30868 31.8117C2.98182 31.9543 2.62615 32.0174 2.27052 31.9959Z" fill="white"/>
</svg>
