<svg width="38" height="38" viewBox="0 0 38 38" fill="none" xmlns="http://www.w3.org/2000/svg">
<path d="M28.9001 37.3334C21.4151 37.3237 14.2395 34.346 8.94682 29.0533C3.65414 23.7606 0.67645 16.585 0.666748 9.10005C0.666748 6.86339 1.55526 4.71834 3.13681 3.13678C4.71837 1.55522 6.86342 0.666713 9.10008 0.666713C9.57371 0.663106 10.0465 0.70609 10.5117 0.795047C10.9615 0.861598 11.4036 0.972127 11.8317 1.12505C12.1329 1.2307 12.4012 1.41312 12.6102 1.65428C12.8192 1.89543 12.9616 2.18697 13.0234 2.50005L15.5351 13.5C15.6028 13.7986 15.5946 14.1094 15.5114 14.404C15.4281 14.6987 15.2724 14.9677 15.0584 15.1867C14.8201 15.4434 14.8017 15.4617 12.5467 16.635C14.3526 20.5966 17.5209 23.778 21.4751 25.6001C22.6667 23.3267 22.6851 23.3084 22.9417 23.0701C23.1607 22.8561 23.4298 22.7004 23.7244 22.6171C24.0191 22.5338 24.3298 22.5257 24.6284 22.5934L35.6284 25.1051C35.9315 25.1754 36.2117 25.3216 36.4426 25.5301C36.6735 25.7386 36.8476 26.0024 36.9484 26.2967C37.1031 26.7319 37.2197 27.1797 37.2967 27.635C37.3705 28.0958 37.4073 28.5617 37.4067 29.0284C37.3729 31.2555 36.4595 33.3788 34.8657 34.9347C33.2719 36.4907 31.1273 37.353 28.9001 37.3334Z" fill="white"/>
</svg>
