<svg width="26" height="52" viewBox="0 0 26 52" fill="none" xmlns="http://www.w3.org/2000/svg">
<path d="M3.83354 51.0834C2.99628 51.085 2.18489 50.7934 1.5402 50.2592C1.17736 49.9584 0.877428 49.5889 0.657584 49.172C0.437739 48.7551 0.302302 48.2989 0.25903 47.8296C0.215759 47.3603 0.265502 46.887 0.405412 46.4369C0.545321 45.9868 0.772645 45.5688 1.07437 45.2067L17.1277 26L1.6477 6.75752C1.35005 6.39099 1.12777 5.96925 0.993641 5.51653C0.85951 5.06381 0.816174 4.58905 0.866123 4.11953C0.916072 3.65002 1.05832 3.195 1.28469 2.78063C1.51106 2.36627 1.8171 2.00073 2.1852 1.70502C2.55596 1.37881 2.99013 1.13275 3.46049 0.982287C3.93085 0.831827 4.42723 0.780213 4.91848 0.830684C5.40973 0.881155 5.88524 1.03262 6.31518 1.27558C6.74512 1.51853 7.12019 1.84774 7.41687 2.24252L24.7244 23.7425C25.2514 24.3837 25.5395 25.188 25.5395 26.0179C25.5395 26.8479 25.2514 27.6522 24.7244 28.2934L6.8077 49.7934C6.44823 50.227 5.9916 50.5698 5.47484 50.7939C4.95809 51.0181 4.39578 51.1172 3.83354 51.0834Z" fill="white"/>
</svg>
